# xmcd CD database file
#
# Track frame offsets:
#	150
#	22349
#	48314
#	67599
#	93218
#	114303
#	129175
#	143787
#
# Disc length: 2382 seconds
#
# Revision: 0
# Processed by: cddbd v1.5.2PL0 Copyright (c) Steve Scherf et al.
# Submitted via: CDex 1.50beta10
#
DISCID=5f094c08
DTITLE=Stephen Miller - Stephen Miller
DYEAR=1970
DGENRE=Blues
TTITLE0=Got Frustration
TTITLE1=Pipeliner
TTITLE2=Have Your Mind Gone Dead?
TTITLE3=Pink Steam
TTITLE4=Sea Cruise
TTITLE5=Man On The Move
TTITLE6=It's A Fact Of Life
TTITLE7=Honeydripper
EXTD=YEAR: 1970
EXTT0=
EXTT1=
EXTT2=
EXTT3=
EXTT4=
EXTT5=
EXTT6=
EXTT7=
PLAYORDER=
